<?xml version="1.0" encoding="UTF-8" standalone="no"?>
<!-- Created with Inkscape (http://www.inkscape.org/) -->
<svg xmlns:rdf="http://www.w3.org/1999/02/22-rdf-syntax-ns#" xmlns="http://www.w3.org/2000/svg" xmlns:cc="http://web.resource.org/cc/" xmlns:xlink="http://www.w3.org/1999/xlink" xmlns:dc="http://purl.org/dc/elements/1.1/" xmlns:svg="http://www.w3.org/2000/svg" xmlns:inkscape="http://www.inkscape.org/namespaces/inkscape" xmlns:sodipodi="http://sodipodi.sourceforge.net/DTD/sodipodi-0.dtd" xmlns:ns1="http://sozi.baierouge.fr" id="svg3023" viewBox="0 0 669.86 800" version="1.1" inkscape:version="0.91 r13725">
  <title id="title3095">CM Isometric Shopping Cart</title>
  <defs id="defs3025">
    <linearGradient id="linearGradient4032" y2="957.09" gradientUnits="userSpaceOnUse" x2="1472.9" gradientTransform="matrix(.18933 0 0 .18933 759.74 -426.92)" y1="1010.2" x1="1472.9">
      <stop id="stop3275-0" style="stop-color:#4d4d4d" offset="0"/>
      <stop id="stop3277-9" style="stop-color:#cccccc" offset="1"/>
    </linearGradient>
  </defs>
  <g id="g3877" transform="matrix(10.308 0 0 10.308 -10108 2996)">
    <g id="g3270" transform="matrix(.18933 0 0 .18933 759.74 -361.1)">
      <g id="g3272" transform="translate(-494.04 -51.378)">
        <path id="path3274" style="stroke-width:1px;fill:#333333" d="m1706.1 747.64s-3.0686-23.032 9.2058-30.118l-24.549 14.173s0 14.173 15.343 15.945z"/>
        <path id="path3276" style="stroke-width:1px" d="m1704.5 733.94c-11.508 6.6437-11.508 19.931-11.508 19.931s0 13.287 11.508 6.6437c11.507-6.6437 11.507-19.931 11.507-19.931s1.6242-14.08-11.507-6.6437z"/>
        <path id="path3278" style="stroke-width:1px" d="m1713.1 732.25 16.167 9.3577-17.566 28.971-15.343-8.8583 16.741-29.47z"/>
        <path id="path3280" style="stroke-width:1px;fill:#1a1a1a" d="m1720.3 743.06c-11.508 6.6437-11.508 19.931-11.508 19.931s0 13.287 11.508 6.6437c11.507-6.6437 11.507-19.931 11.507-19.931s1.6242-14.08-11.507-6.6437z"/>
        <path id="path3282" style="stroke-width:1px;fill:#666666" d="m1720.8 746.72c-8.5295 4.9244-8.5295 14.773-8.5295 14.773s0 9.8489 8.5295 4.9245c8.5293-4.9245 8.5293-14.773 8.5293-14.773s1.2039-10.437-8.5293-4.9244z"/>
        <path id="path3284" style="stroke-width:1px;fill:#4d4d4d" d="m1720.8 748.68c-6.809 3.9311-6.809 11.793-6.809 11.793s0 7.8622 6.809 3.9311c6.8087-3.9311 6.8087-11.793 6.8087-11.793s0.9611-8.3314-6.8087-3.9311z"/>
        <path id="path3286" style="stroke-width:1px;fill:#666666" d="m1715.3 717.52 15.343 8.8583-24.549 14.173-15.343-8.8583 24.549-14.173z"/>
        <path id="path3288" style="stroke-width:1px;fill:#4d4d4d" d="m1721.5 756.5s-3.0686-23.032 9.2058-30.118l-24.549 14.173s0 14.173 15.343 15.945z"/>
      </g>
      <g id="g3290" transform="translate(-475.62 -61.988)">
        <path id="path3292" style="stroke-width:1px;fill:#333333" d="m1810.5 680.31s0-17.716 15.343-26.575l-30.686 17.716s0 17.717 15.343 8.8583z"/>
        <path id="path3294" style="stroke-width:1px" d="m1808.8 665.52c-15.141 8.7418-15.141 26.226-15.141 26.226s0 17.484 15.141 8.7418c15.141-8.7418 15.141-26.226 15.141-26.226s2.1371-18.527-15.141-8.7418z"/>
        <path id="path3296" style="stroke-width:1px;fill:#000000" d="m1820.4 663.45 15.343 8.8583-22.896 38.25-15.343-8.8583 22.896-38.25z"/>
        <path id="path3298" style="stroke-width:1px;fill:#1a1a1a" d="m1823.9 674.26c-15.141 8.7418-15.141 26.226-15.141 26.226s0 17.484 15.141 8.7418c15.141-8.7418 15.141-26.226 15.141-26.226s2.1371-18.527-15.141-8.7418z"/>
        <path id="path3300" style="stroke-width:1px;fill:#666666" d="m1824.3 677.52c-12.339 7.1241-12.339 21.372-12.339 21.372s0 14.248 12.339 7.1241c12.339-7.1241 12.339-21.372 12.339-21.372s1.7417-15.099-12.339-7.1241z"/>
        <path id="path3302" style="stroke-width:1px;fill:#4d4d4d" d="m1824.3 680.22c-9.9723 5.7576-9.9723 17.273-9.9723 17.273s0 11.515 9.9723 5.7576c9.9723-5.7576 9.9723-17.273 9.9723-17.273s1.4076-12.202-9.9723-5.7576z"/>
        <path id="path3304" style="stroke-width:1px;fill:#666666" d="m1825.8 653.74 15.343 8.8583-30.686 17.717-15.343-8.8583 30.686-17.717z"/>
        <path id="path3306" style="stroke-width:1px;fill:#4d4d4d" d="m1825.8 689.17s0-17.716 15.343-26.575l-30.686 17.716s0 17.717 15.343 8.8583z"/>
      </g>
      <g id="g3308" transform="translate(-386.64 10.608)">
        <path id="path3310" style="stroke-width:1px;fill:#333333" d="m1706.1 747.64s-3.0686-23.032 9.2058-30.118l-24.549 14.173s0 14.173 15.343 15.945z"/>
        <path id="path3312" style="stroke-width:1px" d="m1704.5 733.94c-11.508 6.6437-11.508 19.931-11.508 19.931s0 13.287 11.508 6.6437c11.507-6.6437 11.507-19.931 11.507-19.931s1.6242-14.08-11.507-6.6437z"/>
        <path id="path3314" style="stroke-width:1px" d="m1713.1 732.25 16.167 9.3577-17.566 28.971-15.343-8.8583 16.741-29.47z"/>
        <path id="path3316" style="stroke-width:1px;fill:#1a1a1a" d="m1720.3 743.06c-11.508 6.6437-11.508 19.931-11.508 19.931s0 13.287 11.508 6.6437c11.507-6.6437 11.507-19.931 11.507-19.931s1.6242-14.08-11.507-6.6437z"/>
        <path id="path3318" style="stroke-width:1px;fill:#666666" d="m1720.8 746.72c-8.5295 4.9244-8.5295 14.773-8.5295 14.773s0 9.8489 8.5295 4.9245c8.5293-4.9245 8.5293-14.773 8.5293-14.773s1.2039-10.437-8.5293-4.9244z"/>
        <path id="path3320" style="stroke-width:1px;fill:#4d4d4d" d="m1720.8 748.68c-6.809 3.9311-6.809 11.793-6.809 11.793s0 7.8622 6.809 3.9311c6.8087-3.9311 6.8087-11.793 6.8087-11.793s0.9611-8.3314-6.8087-3.9311z"/>
        <path id="path3322" style="stroke-width:1px;fill:#666666" d="m1715.3 717.52 15.343 8.8583-24.549 14.173-15.343-8.8583 24.549-14.173z"/>
        <path id="path3324" style="stroke-width:1px;fill:#4d4d4d" d="m1721.5 756.5s-3.0686-23.032 9.2058-30.118l-24.549 14.173s0 14.173 15.343 15.945z"/>
      </g>
      <g id="g3326" transform="translate(-368.22 -.0022)">
        <path id="path3328" style="stroke-width:1px;fill:#333333" d="m1810.5 680.31s0-17.716 15.343-26.575l-30.686 17.716s0 17.717 15.343 8.8583z"/>
        <path id="path3330" style="stroke-width:1px" d="m1808.8 665.52c-15.141 8.7418-15.141 26.226-15.141 26.226s0 17.484 15.141 8.7418c15.141-8.7418 15.141-26.226 15.141-26.226s2.1371-18.527-15.141-8.7418z"/>
        <path id="path3332" style="stroke-width:1px;fill:#000000" d="m1820.4 663.45 15.343 8.8583-22.896 38.25-15.343-8.8583 22.896-38.25z"/>
        <path id="path3334" style="stroke-width:1px;fill:#1a1a1a" d="m1823.9 674.26c-15.141 8.7418-15.141 26.226-15.141 26.226s0 17.484 15.141 8.7418c15.141-8.7418 15.141-26.226 15.141-26.226s2.1371-18.527-15.141-8.7418z"/>
        <path id="path3336" style="stroke-width:1px;fill:#666666" d="m1824.3 677.52c-12.339 7.1241-12.339 21.372-12.339 21.372s0 14.248 12.339 7.1241c12.339-7.1241 12.339-21.372 12.339-21.372s1.7417-15.099-12.339-7.1241z"/>
        <path id="path3338" style="stroke-width:1px;fill:#4d4d4d" d="m1824.3 680.22c-9.9723 5.7576-9.9723 17.273-9.9723 17.273s0 11.515 9.9723 5.7576c9.9723-5.7576 9.9723-17.273 9.9723-17.273s1.4076-12.202-9.9723-5.7576z"/>
        <path id="path3340" style="stroke-width:1px;fill:#666666" d="m1825.8 653.74 15.343 8.8583-30.686 17.717-15.343-8.8583 30.686-17.717z"/>
        <path id="path3342" style="stroke-width:1px;fill:#4d4d4d" d="m1825.8 689.17s0-17.716 15.343-26.575l-30.686 17.716s0 17.717 15.343 8.8583z"/>
      </g>
      <path id="path3344" style="stroke-width:1px;fill:#808080" d="m1212.1 685.63 147.29-85.039-3.0686-1.7716-147.29 85.039 3.0687 1.7716zm101.26 58.465 147.29-85.039-3.0686-1.7716-147.29 85.039 3.0687 1.7716zm-9.2058-5.315 147.29-85.039-3.0686-1.7716-147.29 85.039 3.0687 1.7716zm-9.2057-5.315 147.29-85.039-3.0686-1.7716-147.29 85.039 3.0687 1.7716zm-9.2058-5.315 147.29-85.039-3.0686-1.7716-147.29 85.039 3.0687 1.7716zm-9.2058-5.315 147.29-85.039-3.0686-1.7716-147.29 85.039 3.0687 1.7716zm-9.2058-5.315 147.29-85.039-3.0686-1.7716-147.29 85.039 3.0687 1.7716zm-9.2058-5.315 147.29-85.039-3.0686-1.7716-147.29 85.039 3.0687 1.7716zm-9.2058-5.315 147.29-85.039-3.0686-1.7716-147.29 85.039 3.0687 1.7716zm-9.2057-5.315 147.29-85.039-3.0686-1.7716-147.29 85.039 3.0687 1.7716zm-9.2058-5.315 147.29-85.039-3.0686-1.7716-147.29 85.039 3.0687 1.7716zm-9.2058-5.315 147.29-85.039-3.0686-1.7716-147.29 85.039 3.0687 1.7716zm128.87-99.221-153.44 88.594 122.75 70.844 153.44-88.562-122.75-70.875zm0.01 3.5522 116.61 67.323-147.29 85.039-116.61-67.323 147.29-85.039z"/>
    </g>
    <g id="g3346" transform="matrix(.18933 0 0 .18933 759.74 -361.1)">
      <g id="g3348" transform="translate(-122.25 -71.471)">
        <path id="path3350" style="stroke-width:1px;fill:#b3b3b3" d="m1503 446.72c-3.0339 1.7517-3.0339 5.255-3.0339 5.255s0 3.5033 3.0339 1.7517c3.034-1.7517 3.034-5.255 3.034-5.255s0.4283-3.7124-3.034-1.7517z"/>
        <path id="path3352" style="stroke-width:1px;fill:#b3b3b3" d="m1466.3 833.7v3.5312l6.1563-3.5625 31.498-32.99-1.7195-5.7943-29.792 21.076-6.1439 4.7397v5.906l6.1576-3.5625-0.015 7.0901-6.1426 3.5662z" transform="translate(0 -347.64)"/>
      </g>
      <g id="g3354" transform="translate(1.8652 -1.4145)">
        <path id="path3356" style="stroke-width:1px;fill:#d40000" d="m1380.6 374.44c-4.4051 2.5433-4.4051 7.63-4.4051 7.63s0 5.0867 4.4051 2.5433c4.4052-2.5433 4.4052-7.63 4.4052-7.63s0.6218-5.3903-4.4052-2.5433z"/>
        <path id="path3358" style="stroke-width:1px;fill:#d40000" d="m1383.9 373.82 122.44 70.739-6.491 11.24-122.44-70.739 6.4911-11.24z"/>
        <path id="path3360" style="stroke-width:1px;fill:#aa0000" d="m1503 445.15c-4.4051 2.5433-4.4051 7.63-4.4051 7.63s0 5.0867 4.4051 2.5433c4.4052-2.5433 4.4052-7.63 4.4052-7.63s0.6218-5.3903-4.4052-2.5433z"/>
      </g>
      <g id="g3362" style="fill:#999999" transform="translate(-.0000037997 248.03)">
        <path id="path3364" style="stroke-width:1px;fill:#999999" d="m1350.2 148.82 3.0686 1.7716v141.73l-3.0686-1.7717v-141.73z"/>
        <path id="path3366" style="stroke-width:1px;fill:#999999" d="m1368.6 159.45 3.0686 1.7716v141.73l-3.0686-1.7717v-141.73z"/>
        <path id="path3368" style="stroke-width:1px;fill:#999999" d="m1359.4 154.13 3.0686 1.7716v141.73l-3.0686-1.7717v-141.73z"/>
        <path id="path3370" style="stroke-width:1px;fill:#999999" d="m1377.8 164.76 3.0686 1.7716v141.73l-3.0686-1.7717v-141.73z"/>
        <path id="path3372" style="stroke-width:1px;fill:#999999" d="m1387 170.08 3.0686 1.7716v141.73l-3.0686-1.7717v-141.73z"/>
        <path id="path3374" style="stroke-width:1px;fill:#999999" d="m1396.2 175.39 3.0686 1.7716v141.73l-3.0686-1.7717v-141.73z"/>
        <path id="path3376" style="stroke-width:1px;fill:#999999" d="m1405.4 180.71 3.0686 1.7716v141.73l-3.0686-1.7717v-141.73z"/>
        <path id="path3378" style="stroke-width:1px;fill:#999999" d="m1414.6 186.02 3.0686 1.7716v141.73l-3.0686-1.7717v-141.73z"/>
        <path id="path3380" style="stroke-width:1px;fill:#999999" d="m1423.8 191.34 3.0686 1.7716v141.73l-3.0686-1.7717v-141.73z"/>
        <path id="path3382" style="stroke-width:1px;fill:#999999" d="m1433 196.65 3.0686 1.7716v141.73l-3.0686-1.7717v-141.73z"/>
        <path id="path3384" style="stroke-width:1px;fill:#999999" d="m1442.2 201.97 3.0686 1.7716v141.73l-3.0686-1.7717v-141.73z"/>
        <path id="path3386" style="stroke-width:1px;fill:#999999" d="m1451.4 207.28 3.0686 1.7716v141.73l-3.0686-1.7717v-141.73z"/>
        <path id="path3388" style="stroke-width:1px;fill:#999999" d="m1460.7 212.6 3.0686 1.7716v141.73l-3.0686-1.7717v-141.73z"/>
        <path id="path3390" style="stroke-width:1px;fill:#999999" d="m1469.9 217.91 3.0686 1.7716v141.73l-3.0686-1.7717v-141.73z"/>
        <path id="path3392" style="stroke-width:1px;fill:#999999" d="m1350.2 148.82 122.74 70.866v3.5433l-122.74-70.866v-3.5433z"/>
        <path id="path3394" style="stroke-width:1px;fill:#999999" d="m1350.2 159.45 122.74 70.866v3.5433l-122.74-70.866v-3.5433z"/>
        <path id="path3396" style="stroke-width:1px;fill:#999999" d="m1350.2 170.08 122.74 70.866v3.5433l-122.74-70.866v-3.5433z"/>
        <path id="path3398" style="stroke-width:1px;fill:#999999" d="m1350.2 180.71 122.74 70.866v3.5433l-122.74-70.866v-3.5433z"/>
        <path id="path3400" style="stroke-width:1px;fill:#999999" d="m1350.2 191.34 122.74 70.866v3.5433l-122.74-70.866v-3.5433z"/>
        <path id="path3402" style="stroke-width:1px;fill:#999999" d="m1350.2 201.97 122.74 70.866v3.5433l-122.74-70.866v-3.5433z"/>
        <path id="path3404" style="stroke-width:1px;fill:#999999" d="m1350.2 212.6 122.74 70.866v3.5433l-122.74-70.866v-3.5433z"/>
        <path id="path3406" style="stroke-width:1px;fill:#999999" d="m1350.2 223.23 122.74 70.866v3.5433l-122.74-70.866v-3.5433z"/>
        <path id="path3409" style="stroke-width:1px;fill:#999999" d="m1350.2 233.86 122.74 70.866v3.5433l-122.74-70.866v-3.5433z"/>
        <path id="path3411" style="stroke-width:1px;fill:#999999" d="m1350.2 244.49 122.74 70.866v3.5433l-122.74-70.866v-3.5433z"/>
        <path id="path3413" style="stroke-width:1px;fill:#999999" d="m1350.2 255.12 122.74 70.866v3.5433l-122.74-70.866v-3.5433z"/>
        <path id="path3415" style="stroke-width:1px;fill:#999999" d="m1350.2 265.75 122.74 70.866v3.5433l-122.74-70.866v-3.5433z"/>
        <path id="path3417" style="stroke-width:1px;fill:#999999" d="m1350.2 276.38 122.74 70.866v3.5433l-122.74-70.866v-3.5433z"/>
        <path id="path3419" style="stroke-width:1px;fill:#999999" d="m1350.2 287.01 122.74 70.866v3.5433l-122.74-70.866v-3.5433z"/>
      </g>
      <g id="g3421" style="fill:#808080" transform="translate(-.0000037997 248.03)">
        <path id="path3423" style="stroke-width:1px;fill:#808080" d="m1350.2 290.55 3.0686 1.7716-184.12 106.3-3.0686-1.7717 184.12-106.3z"/>
        <path id="path3425" style="stroke-width:1px;fill:#808080" d="m1169.1 395.08 122.74 70.866-3.0686 1.7717-122.74-70.866 3.0686-1.7716z"/>
        <path id="path3427" style="stroke-width:1px;fill:#808080" d="m1368.6 301.18 3.0686 1.7716-184.12 106.3-3.0686-1.7717 184.12-106.3z"/>
        <path id="path3429" style="stroke-width:1px;fill:#808080" d="m1359.4 295.87 3.0686 1.7716-184.12 106.3-3.0686-1.7717 184.12-106.3z"/>
        <path id="path3431" style="stroke-width:1px;fill:#808080" d="m1377.8 306.5 3.0686 1.7716-184.12 106.3-3.0686-1.7717 184.12-106.3z"/>
        <path id="path3433" style="stroke-width:1px;fill:#808080" d="m1387 311.81 3.0686 1.7716-184.12 106.3-3.0686-1.7717 184.12-106.3z"/>
        <path id="path3435" style="stroke-width:1px;fill:#808080" d="m1396.2 317.13 3.0686 1.7716-184.12 106.3-3.0686-1.7717 184.12-106.3z"/>
        <path id="path3437" style="stroke-width:1px;fill:#808080" d="m1405.4 322.44 3.0686 1.7716-184.12 106.3-3.0686-1.7717 184.12-106.3z"/>
        <path id="path3439" style="stroke-width:1px;fill:#808080" d="m1414.6 327.76 3.0686 1.7716-184.12 106.3-3.0686-1.7717 184.12-106.3z"/>
        <path id="path3441" style="stroke-width:1px;fill:#808080" d="m1423.8 333.07 3.0686 1.7716-184.12 106.3-3.0686-1.7717 184.12-106.3z"/>
        <path id="path3443" style="stroke-width:1px;fill:#808080" d="m1433 338.39 3.0686 1.7716-184.12 106.3-3.0686-1.7717 184.12-106.3z"/>
        <path id="path3445" style="stroke-width:1px;fill:#808080" d="m1442.2 343.7 3.0686 1.7716-184.12 106.3-3.0686-1.7717 184.12-106.3z"/>
        <path id="path3447" style="stroke-width:1px;fill:#808080" d="m1451.4 349.02 3.0686 1.7716-184.12 106.3-3.0686-1.7717 184.12-106.3z"/>
        <path id="path3449" style="stroke-width:1px;fill:#808080" d="m1460.7 354.33 3.0686 1.7716-184.12 106.3-3.0686-1.7717 184.12-106.3z"/>
        <path id="path3451" style="stroke-width:1px;fill:#808080" d="m1469.9 359.65 3.0686 1.7716-184.12 106.3-3.0686-1.7717 184.12-106.3z"/>
        <path id="path3453" style="stroke-width:1px;fill:#808080" d="m1178.3 389.76 122.74 70.866-3.0686 1.7717-122.74-70.866 3.0686-1.7716z"/>
        <path id="path3455" style="stroke-width:1px;fill:#808080" d="m1187.5 384.45 122.74 70.866-3.0686 1.7717-122.74-70.866 3.0686-1.7716z"/>
        <path id="path3457" style="stroke-width:1px;fill:#808080" d="m1196.8 379.13 122.74 70.866-3.0686 1.7717-122.74-70.866 3.0686-1.7716z"/>
        <path id="path3459" style="stroke-width:1px;fill:#808080" d="m1206 373.82 122.74 70.866-3.0686 1.7717-122.74-70.866 3.0686-1.7716z"/>
        <path id="path3461" style="stroke-width:1px;fill:#808080" d="m1215.2 368.5 122.74 70.866-3.0686 1.7717-122.74-70.866 3.0686-1.7716z"/>
        <path id="path3463" style="stroke-width:1px;fill:#808080" d="m1224.4 363.19 122.74 70.866-3.0686 1.7717-122.74-70.866 3.0686-1.7716z"/>
        <path id="path3465" style="stroke-width:1px;fill:#808080" d="m1233.6 357.87 122.74 70.866-3.0686 1.7717-122.74-70.866 3.0686-1.7716z"/>
        <path id="path3467" style="stroke-width:1px;fill:#808080" d="m1242.8 352.56 122.74 70.866-3.0686 1.7717-122.74-70.866 3.0686-1.7716z"/>
        <path id="path3469" style="stroke-width:1px;fill:#808080" d="m1252 347.24 122.74 70.866-3.0686 1.7717-122.74-70.866 3.0686-1.7716z"/>
        <path id="path3471" style="stroke-width:1px;fill:#808080" d="m1261.2 341.93 122.74 70.866-3.0686 1.7717-122.74-70.866 3.0686-1.7716z"/>
        <path id="path3473" style="stroke-width:1px;fill:#808080" d="m1270.4 336.61 122.74 70.866-3.0686 1.7717-122.74-70.866 3.0686-1.7716z"/>
        <path id="path3475" style="stroke-width:1px;fill:#808080" d="m1279.6 331.3 122.74 70.866-3.0686 1.7717-122.74-70.866 3.0686-1.7716z"/>
        <path id="path3477" style="stroke-width:1px;fill:#808080" d="m1288.8 325.98 122.74 70.866-3.0686 1.7717-122.74-70.866 3.0686-1.7716z"/>
        <path id="path3479" style="stroke-width:1px;fill:#808080" d="m1298 320.67 122.74 70.866-3.0686 1.7717-122.74-70.866 3.0686-1.7716z"/>
        <path id="path3481" style="stroke-width:1px;fill:#808080" d="m1307.2 315.35 122.74 70.866-3.0686 1.7717-122.74-70.866 3.0686-1.7716z"/>
        <path id="path3483" style="stroke-width:1px;fill:#808080" d="m1316.4 310.04 122.74 70.866-3.0686 1.7717-122.74-70.866 3.0686-1.7716z"/>
        <path id="path3485" style="stroke-width:1px;fill:#808080" d="m1325.6 304.72 122.74 70.866-3.0686 1.7717-122.74-70.866 3.0686-1.7716z"/>
        <path id="path3487" style="stroke-width:1px;fill:#808080" d="m1334.8 299.41 122.74 70.866-3.0686 1.7717-122.74-70.866 3.0686-1.7716z"/>
        <path id="path3489" style="stroke-width:1px;fill:#808080" d="m1344 294.09 122.74 70.866-3.0686 1.7717-122.74-70.866 3.0686-1.7716z"/>
      </g>
      <path id="path3491" style="stroke-width:1px;fill:#b3b3b3" d="m1350.2 396.85-6.1563 4.75-2.3124 1.7812-0.75 0.5625-6.125 4.7188-3.0938 2.375v0.0312l-0.062 0.0312-4.2187 3.2188-1.8438 1.4375-3.0625 2.375-4.1563 3.1875-2 1.5312-3.0624 2.375-6.125 4.7188-3.0626 2.3438-6.1562 4.75-2.3125 1.7812-0.75 0.5625-6.125 4.7188-3.0625 2.3438-6.1562 4.75-2.9063 2.25-0.062 0.0312-0.094 0.0625-6.125 4.7188-3.0937 2.4062-6.125 4.7188-3.0625 2.3438-6.1562 4.75-2.3126 1.7812-0.75 0.5625-6.125 4.7188-3.0624 2.3438-6.1563 4.75-3.0625 2.375-6.125 4.6875-3.0938 2.4062-6.125 4.7188-3.0624 2.3438-6.1563 4.75-1.125 0.84375-1.875 1.4375-0.031 0.0312-0.031 0.0312-6.125 4.7188-3.0625 2.3438-6.1563 4.75-3.0624 2.375-6.125 4.6875-3.0938 2.4062-6.125 4.7188-3.0625 2.3438v3.5312 7.0938 3.5312 7.0938 3.5312 7.0938 3.5625 7.0625 3.5625 7.0938 3.5312 7.0938 3.5312 7.0938 3.5312 7.0938 3.5312 7.0938 3.5625 7.0625l3.0625-1.75v-7.0938l6.125-3.5312v7.0625l3.0938-1.75v-7.0938l6.125-3.5312v7.0625l3.0624-1.7812v-7.0625l6.1563-3.5312v7.0625l3.0625-1.7812v-7.0625l6.125-3.5312v7.0625l3.0625-1.7812v-7.0625l6.1563-3.5625v7.0938l3.0624-1.7812v-7.0625l6.125-3.5312v7.0625l3.0938-1.7812v-7.0625l6.125-3.5625v7.0938l3.0625-1.7812v-7.0625l6.1563-3.5625v7.0938l3.0624-1.7812v-7.0625l6.125-3.5625v7.0938l3.0626-1.7812v-7.0625l6.1562-3.5625v7.0938l3.0625-1.7812v-7.0938l6.125-3.5312v7.0625l3.0937-1.75v-7.0938l6.125-3.5312v7.0625l3.0626-1.75v-7.0938l6.1562-3.5312v7.0625l3.0625-1.75v-7.0938l6.125-3.5312v7.0625l3.0625-1.75v-7.0938l6.1562-3.5312v7.0625l3.0626-1.7812v-7.0625l6.125-3.5312v7.0625l3.0624-1.7812v-7.0625l6.1563-3.5625v7.0938l3.0625-1.7812v-7.0625l6.125-3.5312v7.0625l3.0938-1.7812v-7.0938l6.125-3.5312v7.0938l3.0624-1.7812v-7.0625l6.1563-3.5625v-3.5312l-6.1563 3.5625v-7.0938l6.1563-3.5625v-3.5625l-6.1563 3.5625v-7.0625l6.1563-3.5625v-3.5625l-6.1563 3.5625v-7.0625l6.1563-3.5625v-3.5625l-6.1563 3.5625v-7.0938l6.1563-3.5625v-3.5312l-6.1563 3.5625v-7.0938l6.1563-3.5625v-3.5312l-6.1563 3.5625v-7.0938l6.1563-3.5625v-3.5312l-6.1563 3.5625v-7.0938l6.1563-3.5625v-3.5312l-6.1563 3.5625v-7.0938l6.1563-3.5625v-3.5625l-6.1563 3.5625v-7.0625l6.1563-3.5625v-3.5625l-6.1563 3.5625v-7.0938l6.1563-3.5625v-3.5312l-6.1563 3.5625v-7.0938l6.1563-3.5625v-3.5312l-6.1563 3.5625v-7.0938l6.1563-3.5625v-3.5312-3.5625zm-9.2187 12.406v7.0938l-6.125 3.5312v-7.0625l6.125-3.5625zm-9.2188 5.3438v7.0625l-6.125 3.5625v-5.9062l6.125-4.7188zm9.2188 5.2812v7.0938l-6.125 3.5625v-7.125l6.125-3.5312zm-18.406 1.7812v5.3125l-6.1563 3.5625v-4.125l6.1563-4.75zm9.1875 3.5625v7.0938l-6.125 3.5312v-7.0938l6.125-3.5312zm-18.406 3.5312v3.5312l-6.125 3.5312v-2.3438l6.125-4.7188zm9.2187 1.75v7.0938l-6.1563 3.5625v-7.0938l6.1563-3.5625zm18.406 0v7.0938l-6.125 3.5625v-7.125l6.125-3.5312zm-36.813 5.3438v1.75l-6.1562 3.5625v-0.59375l6.1562-4.7188zm9.1876 0v7.0938l-6.125 3.5312v-7.0938l6.125-3.5312zm18.406 0v7.0938l-6.125 3.5312v-7.0938l6.125-3.5312zm-9.1875 5.2812v7.0938l-6.1563 3.5625v-7.0938l6.1563-3.5625zm-18.406 0.0312v7.0938l-6.1562 3.5312v-7.0938l6.1562-3.5312zm36.813 0v7.0625l-6.125 3.5625v-7.0938l6.125-3.5312zm-46.031 5.3125v7.0938l-6.125 3.5312v-7.0938l6.125-3.5312zm18.406 0v7.0938l-6.125 3.5312v-7.0938l6.125-3.5312zm18.406 0.0312v7.0625l-6.125 3.5312v-7.0625l6.125-3.5312zm-27.594 5.25v7.0938l-6.1562 3.5625v-7.0938l6.1562-3.5625zm-18.406 0.0312v7.0938l-6.1562 3.5312v-7.0938l6.1562-3.5312zm36.812 0v7.0625l-6.1563 3.5625v-7.0625l6.1563-3.5625zm18.406 0v7.0938l-6.125 3.5312v-7.0938l6.125-3.5312zm-64.438 5.3125v7.0938l-6.125 3.5312v-5.9062l6.125-4.7188zm18.406 0v7.0938l-6.125 3.5312v-7.0938l6.125-3.5312zm18.406 0.0312v7.0625l-6.125 3.5312v-7.0625l6.125-3.5312zm18.406 0v7.0938l-6.125 3.5312v-7.0938l6.125-3.5312zm-46 5.25v7.125l-6.1562 3.5312v-7.0938l6.1562-3.5625zm18.406 0.0312v7.0625l-6.1562 3.5625v-7.0625l6.1562-3.5625zm18.406 0v7.0938l-6.1563 3.5625v-7.0938l6.1563-3.5625zm18.406 0v7.0938l-6.125 3.5312v-7.0938l6.125-3.5312zm-73.656 1.7812v5.3125l-6.125 3.5625v-4.1562l6.125-4.7188zm9.2187 3.5312v7.0938l-6.125 3.5312v-7.0938l6.125-3.5312zm18.406 0.0312v7.0625l-6.125 3.5312v-7.0625l6.125-3.5312zm18.406 0v7.0938l-6.125 3.5312v-7.0938l6.125-3.5312zm18.406 0v7.0938l-6.125 3.5312v-7.0938l6.125-3.5312zm-73.625 3.5312v3.5312l-6.1562 3.5625v-2.375l6.1562-4.7188zm9.1875 1.75v7.0938l-6.125 3.5312v-7.0938l6.125-3.5312zm18.438 0v7.0938l-6.1562 3.5312v-7.0625l6.1562-3.5625zm18.406 0v7.0938l-6.1562 3.5625v-7.0938l6.1562-3.5625zm18.406 0v7.0938l-6.1563 3.5625v-7.0938l6.1563-3.5625zm18.406 0v7.0938l-6.125 3.5312v-7.0625l6.125-3.5625zm-82.844 5.3125v7.0938l-6.1562 3.5625v-7.0938l6.1562-3.5625zm-9.2188 0.0312v1.7812l-6.125 3.5312v-0.625l6.125-4.6875zm27.625 0v7.0625l-6.125 3.5312v-7.0625l6.125-3.5312zm18.406 0v7.0938l-6.125 3.5312v-7.0938l6.125-3.5312zm18.406 0v7.0938l-6.125 3.5312v-7.0938l6.125-3.5312zm18.406 0v7.0938l-6.125 3.5312v-7.0938l6.125-3.5312zm-82.844 5.2812v7.0938l-6.125 3.5312v-7.0938l6.125-3.5312zm36.844 0v7.0938l-6.1562 3.5625v-7.0938l6.1562-3.5625zm18.406 0v7.0938l-6.1562 3.5625v-7.0938l6.1562-3.5625zm18.406 0v7.0938l-6.1563 3.5625v-7.0938l6.1563-3.5625zm18.406 0v7.0938l-6.125 3.5312v-7.0625l6.125-3.5625zm-73.656 0.0312v7.0625l-6.125 3.5312v-7.0625l6.125-3.5312zm-27.594 5.2812v7.0938l-6.1563 3.5625v-7.0938l6.1563-3.5625zm18.406 0v7.0938l-6.1562 3.5625v-7.0938l6.1562-3.5625zm18.406 0.0312v7.0938l-6.125 3.5312v-7.0938l6.125-3.5312zm18.406 0v7.0938l-6.125 3.5312v-7.0938l6.125-3.5312zm18.406 0v7.0938l-6.125 3.5312v-7.0938l6.125-3.5312zm18.406 0v7.0938l-6.125 3.5312v-7.0938l6.125-3.5312zm-101.25 5.2812v7.0938l-6.125 3.5625v-7.125l6.125-3.5312zm55.25 0v7.0938l-6.1562 3.5625v-7.0938l6.1562-3.5625zm18.406 0v7.0938l-6.1562 3.5625v-7.0938l6.1562-3.5625zm18.406 0v7.0938l-6.1563 3.5625v-7.0938l6.1563-3.5625zm18.406 0v7.0938l-6.125 3.5312v-7.0625l6.125-3.5625zm-92.063 0.0312v7.0625l-6.125 3.5312v-7.0625l6.125-3.5312zm18.406 0v7.0938l-6.125 3.5312v-7.0938l6.125-3.5312zm-27.594 5.2812v7.0938l-6.1563 3.5625v-7.0938l6.1563-3.5625zm18.406 0v7.125l-6.1562 3.5312v-7.0938l6.1562-3.5625zm-36.844 0.0312v7.0938l-6.125 3.5312v-5.9062l6.125-4.7188zm55.25 0v7.0938l-6.125 3.5312v-7.0938l6.125-3.5312zm18.406 0v7.0938l-6.125 3.5312v-7.0938l6.125-3.5312zm18.406 0v7.0938l-6.125 3.5312v-7.0938l6.125-3.5312zm18.406 0v7.0938l-6.125 3.5312v-7.0938l6.125-3.5312zm-27.594 5.2812v7.125l-6.1562 3.5312v-7.0938l6.1562-3.5625zm18.406 0v7.0938l-6.1563 3.5625v-7.0938l6.1563-3.5625zm-92.062 0.0312v7.0625l-6.125 3.5625v-7.0938l6.125-3.5312zm18.406 0v7.0938l-6.125 3.5312v-7.0938l6.125-3.5312zm18.406 0v7.0938l-6.125 3.5312v-7.0938l6.125-3.5312zm18.438 0v7.0625l-6.1562 3.5625v-7.0938l6.1562-3.5312zm55.219 0v7.0625l-6.125 3.5312v-7.0625l6.125-3.5312zm-128.88 1.75v5.3438l-6.1563 3.5312v-4.125l6.1563-4.75zm27.625 3.5312v7.0938l-6.1563 3.5625v-7.0938l6.1563-3.5625zm18.406 0v7.125l-6.1562 3.5312v-7.0938l6.1562-3.5625zm-36.844 0.0312v7.0938l-6.125 3.5312v-7.0938l6.125-3.5312zm55.25 0v7.0938l-6.125 3.5312v-7.0938l6.125-3.5312zm18.406 0v7.0938l-6.125 3.5312v-7.0938l6.125-3.5312zm18.406 0v7.0938l-6.125 3.5312v-7.0938l6.125-3.5312zm18.406 0.0312v7.0625l-6.125 3.5312v-7.0625l6.125-3.5312zm-128.88 3.5v3.5625l-6.125 3.5312v-2.375l6.125-4.7188zm101.28 1.75v7.125l-6.1562 3.5312v-7.0938l6.1562-3.5625zm-92.062 0.0312v7.0938l-6.1563 3.5312v-7.0938l6.1563-3.5312zm18.406 0v7.0938l-6.125 3.5312v-7.0938l6.125-3.5312zm18.406 0v7.0938l-6.125 3.5312v-7.0938l6.125-3.5312zm18.406 0v7.0938l-6.125 3.5312v-7.0938l6.125-3.5312zm18.438 0v7.0938l-6.1562 3.5312v-7.0938l6.1562-3.5312zm36.812 0v7.0625l-6.1563 3.5625v-7.0625l6.1563-3.5625zm18.406 0v7.0625l-6.125 3.5312v-7.0625l6.125-3.5312zm-101.25 5.2812v7.0938l-6.1563 3.5625v-7.0938l6.1563-3.5625zm-46.031 0.0312v1.7812l-6.1563 3.5312v-0.59375l6.1563-4.7188zm9.1875 0v7.0938l-6.125 3.5312v-7.0938l6.125-3.5312zm18.406 0v7.0938l-6.125 3.5312v-7.0938l6.125-3.5312zm36.844 0v7.0938l-6.1562 3.5312v-7.0625l6.1562-3.5625zm18.406 0v7.0938l-6.125 3.5312v-7.0938l6.125-3.5312zm18.406 0v7.0938l-6.125 3.5312v-7.0938l6.125-3.5312zm18.406 0.0312v7.0625l-6.125 3.5312v-7.0625l6.125-3.5312zm18.406 0v7.0625l-6.125 3.5312v-7.0625l6.125-3.5312zm-138.06 5.2812v7.0938l-6.1563 3.5312v-7.0938l6.1563-3.5312zm18.406 0v7.0938l-6.1563 3.5312v-7.0938l6.1563-3.5312zm18.406 0v7.0938l-6.125 3.5312v-7.0938l6.125-3.5312zm18.406 0v7.0938l-6.125 3.5312v-7.0938l6.125-3.5312zm18.406 0v7.0938l-6.125 3.5312v-7.0938l6.125-3.5312zm18.438 0v7.0938l-6.1562 3.5312v-7.0938l6.1562-3.5312zm18.406 0v7.0938l-6.1562 3.5312v-7.0625l6.1562-3.5625zm18.406 0v7.0625l-6.1563 3.5625v-7.0625l6.1563-3.5625zm18.406 0v7.0938l-6.125 3.5312v-7.0938l6.125-3.5312zm-156.5 5.3125v7.0938l-6.125 3.5312v-7.0938l6.125-3.5312zm18.406 0v7.0938l-6.125 3.5312v-7.0938l6.125-3.5312zm18.406 0v7.0938l-6.125 3.5312v-7.0938l6.125-3.5312zm18.438 0v7.0625l-6.1563 3.5625v-7.0625l6.1563-3.5625zm18.406 0v7.0938l-6.1562 3.5625v-7.0938l6.1562-3.5625zm18.406 0v7.0938l-6.125 3.5312v-7.0938l6.125-3.5312zm18.406 0.0312v7.0625l-6.125 3.5312v-7.0625l6.125-3.5312zm18.406 0v7.0625l-6.125 3.5312v-7.0625l6.125-3.5312zm18.406 0v7.0938l-6.125 3.5312v-7.0938l6.125-3.5312zm-156.5 5.2812v7.0938l-6.125 3.5312v-7.0938l6.125-3.5312zm18.438 0v7.0938l-6.1563 3.5312v-7.0938l6.1563-3.5312zm18.406 0v7.0938l-6.1563 3.5312v-7.0938l6.1563-3.5312zm18.406 0v7.0938l-6.125 3.5312v-7.0625l6.125-3.5625zm18.406 0v7.0938l-6.125 3.5625v-7.125l6.125-3.5312zm18.406 0v7.0938l-6.125 3.5312v-7.0938l6.125-3.5312zm18.438 0v7.0938l-6.1562 3.5312v-7.0625l6.1562-3.5625zm18.406 0v7.0938l-6.1562 3.5312v-7.0625l6.1562-3.5625zm18.406 0v7.0938l-6.1563 3.5625v-7.0938l6.1563-3.5625zm-138.09 5.3125v7.0938l-6.125 3.5312v-7.0938l6.125-3.5312zm18.406 0v7.0938l-6.125 3.5312v-7.0938l6.125-3.5312zm36.844 0v7.0938l-6.1563 3.5625v-7.0938l6.1563-3.5625zm18.406 0v7.0938l-6.1562 3.5625v-7.0938l6.1562-3.5625zm-36.844 0.0312v7.0625l-6.125 3.5312v-7.0625l6.125-3.5312zm55.25 0v7.0625l-6.125 3.5312v-7.0625l6.125-3.5312zm18.406 0v7.0625l-6.125 3.5312v-7.0625l6.125-3.5312zm18.406 0v7.0938l-6.125 3.5312v-7.0938l6.125-3.5312zm-138.09 5.2812v7.0938l-6.125 3.5312v-7.0938l6.125-3.5312zm18.438 0v7.0938l-6.1563 3.5312v-7.0938l6.1563-3.5312zm36.812 0v7.0938l-6.125 3.5625v-7.0938l6.125-3.5625zm18.406 0v7.0938l-6.125 3.5625v-7.125l6.125-3.5312zm36.844 0v7.0938l-6.1562 3.5312v-7.0625l6.1562-3.5625zm18.406 0v7.0938l-6.1562 3.5625v-7.0938l6.1562-3.5625zm-92.062 0.0312v7.0625l-6.1563 3.5312v-7.0625l6.1563-3.5312zm55.219 0v7.0625l-6.125 3.5312v-7.0625l6.125-3.5312zm-82.844 5.2812v7.0938l-6.125 3.5312v-7.0938l6.125-3.5312zm55.25 0v7.0938l-6.1563 3.5625v-7.0938l6.1563-3.5625zm-36.844 0.0312v7.0625l-6.125 3.5312v-7.0625l6.125-3.5312zm18.406 0v7.0938l-6.125 3.5312v-7.0938l6.125-3.5312zm36.844 0v7.0625l-6.1562 3.5625v-7.0938l6.1562-3.5312zm18.406 0v7.0625l-6.125 3.5312v-7.0625l6.125-3.5312zm18.406 0v7.0938l-6.125 3.5312v-7.0938l6.125-3.5312zm-119.69 5.2812v7.0938l-6.125 3.5312v-7.0938l6.125-3.5312zm55.25 0v7.0938l-6.125 3.5625v-7.0938l6.125-3.5625zm55.25 0v7.0938l-6.1562 3.5625v-7.0938l6.1562-3.5625zm-92.062 0.0312v7.0625l-6.1563 3.5312v-7.0625l6.1563-3.5312zm18.406 0v7.0625l-6.1563 3.5625v-7.0938l6.1563-3.5312zm36.812 0v7.0625l-6.125 3.5625v-7.0938l6.125-3.5312zm18.406 0v7.0625l-6.125 3.5312v-7.0625l6.125-3.5312zm-27.594 5.2812v7.0938l-6.1563 3.5625v-7.0938l6.1563-3.5625zm-55.25 0.0312v7.0625l-6.125 3.5312v-7.0625l6.125-3.5312zm18.406 0v7.0938l-6.125 3.5312v-7.0938l6.125-3.5312zm18.406 0v7.0938l-6.125 3.5312v-7.0938l6.125-3.5312zm36.844 0v7.0625l-6.1562 3.5625v-7.0938l6.1562-3.5312zm18.406 0v7.0938l-6.125 3.5312v-7.0938l6.125-3.5312zm-101.28 5.3125v7.0625l-6.125 3.5312v-7.0625l6.125-3.5312zm18.438 0v7.0938l-6.1563 3.5312v-7.0938l6.1563-3.5312zm18.406 0v7.0625l-6.1563 3.5625v-7.0938l6.1563-3.5312zm18.406 0v7.0625l-6.125 3.5625v-7.0938l6.125-3.5312zm18.406 0v7.0625l-6.125 3.5625v-7.0938l6.125-3.5312zm18.406 0v7.0938l-6.125 3.5312v-7.0938l6.125-3.5312zm-27.594 5.2812v7.0938l-6.1563 3.5625v-7.0938l6.1563-3.5625zm-55.25 0.0312v7.0938l-6.125 3.5312v-7.0938l6.125-3.5312zm18.406 0v7.0938l-6.125 3.5312v-7.0938l6.125-3.5312zm18.406 0v7.0938l-6.125 3.5312v-7.0938l6.125-3.5312zm36.844 0v7.0625l-6.1562 3.5625v-7.0938l6.1562-3.5312zm-82.875 5.3125v7.0938l-6.125 3.5312v-7.0938l6.125-3.5312zm18.438 0v7.0938l-6.1563 3.5312v-7.0938l6.1563-3.5312zm18.406 0v7.0625l-6.1563 3.5625v-7.0938l6.1563-3.5312zm18.406 0v7.0625l-6.125 3.5625v-7.0938l6.125-3.5312zm18.406 0v7.0938l-6.125 3.5312v-7.0938l6.125-3.5312zm-9.1874 5.2812v7.0938l-6.1563 3.5625v-7.0938l6.1563-3.5625zm-55.25 0.0312v7.0938l-6.125 3.5312v-7.0938l6.125-3.5312zm18.406 0v7.0938l-6.125 3.5312v-7.0938l6.125-3.5312zm18.406 0v7.0938l-6.125 3.5312v-7.0938l6.125-3.5312zm-46.031 5.3125v7.0938l-6.125 3.5312v-7.0938l6.125-3.5312zm18.438 0v7.0938l-6.1563 3.5312v-7.0938l6.1563-3.5312zm18.406 0v7.0625l-6.1563 3.5625v-7.0938l6.1563-3.5312zm18.406 0v7.0938l-6.125 3.5312v-7.0938l6.125-3.5312zm-46.031 5.3125v7.0938l-6.125 3.5312v-7.0938l6.125-3.5312zm18.406 0v7.0938l-6.125 3.5312v-7.0938l6.125-3.5312zm18.406 0v7.0938l-6.125 3.5312v-7.0938l6.125-3.5312zm-46.031 5.3125v7.0938l-6.125 3.5312v-7.0938l6.125-3.5312zm18.438 0v7.0938l-6.1563 3.5312v-7.0938l6.1563-3.5312zm18.406 0v7.0938l-6.1563 3.5312v-7.0938l6.1563-3.5312zm-27.625 5.3125v7.0938l-6.125 3.5312v-7.0938l6.125-3.5312zm18.406 0v7.0938l-6.125 3.5312v-7.0938l6.125-3.5312zm-27.625 5.3125v7.0938l-6.125 3.5312v-7.0938l6.125-3.5312zm18.438 0v7.0938l-6.1563 3.5312v-7.0938l6.1563-3.5312zm-9.2187 5.3125v7.0938l-6.125 3.5312v-7.0938l6.125-3.5312zm-9.2188 5.3125v7.0938l-6.125 3.5312v-7.0938l6.125-3.5312z"/>
      <g id="g3493" style="fill:#cccccc" transform="translate(.49020 -.60451)">
        <path id="path3495" style="stroke-width:1px;fill:#cccccc" d="m1503 446.72c-3.0339 1.7517-3.0339 5.255-3.0339 5.255s0 3.5033 3.0339 1.7517c3.034-1.7517 3.034-5.255 3.034-5.255s0.4283-3.7124-3.034-1.7517z"/>
        <path id="path3497" style="stroke-width:1px;fill:#cccccc" d="m1466.3 833.7v3.5312l6.1563-3.5625 31.498-32.99-1.7195-5.7943-29.792 21.076-6.1439 4.7397v5.906l6.1576-3.5625-0.015 7.0901-6.1426 3.5662z" transform="translate(0 -347.64)"/>
      </g>
    </g>
    <path id="path3573" style="stroke-width:1px;fill:url(#linearGradient4032)" d="m1038.6-245.72-1.163 0.66993v10.064l1.1646-0.67127v-10.062z"/>
    <path id="path3575" style="stroke-width:1px;fill:#666666" d="m1036.9-235.32 0.5809 0.33542v-10.063l-0.5809 0.33543v9.3918z"/>
    <g id="g5406" transform="matrix(.20378 0 0 .20378 603.24 -368.04)">
      <g id="g5408" transform="translate(127.28 -15.556)">
        <path id="path5410" style="fill:#000080" d="m1718.4 797.64 20.827 42.2 46.571 6.7671-33.699 32.848 7.9552 46.382-41.654-21.899-41.654 21.899 7.9552-46.382-33.699-32.848 46.571-6.7671 20.827-42.2z" transform="matrix(.94499 -.54559 0 .94499 217.27 633.79)"/>
        <path id="path5412" style="stroke-width:1px;fill:#aa8800" d="m1801.8 941.51 61.372 35.433 7.5177-48.172-61.372-35.433-7.5176 48.172z" transform="translate(0 -347.64)"/>
        <path id="path5414" style="stroke-width:1px;fill:#d4aa00" d="m1922.2 861.59 44.009-19.014-61.372-35.433-36.982 15.978 54.345 38.469z" transform="translate(0 -347.64)"/>
        <path id="path5416" style="stroke-width:1px;fill:#d4aa00" d="m1821.5 848.88 61.372 35.433-44.009 31.804-61.372-35.433 44.009-31.804z" transform="translate(0 -347.64)"/>
        <path id="path5418" style="stroke-width:1px;fill:#aa8800" d="m1882.8 884.31 19.682-51.242-61.372-35.433-19.682 51.242 61.372 35.433z" transform="translate(0 -347.64)"/>
        <path id="path5420" style="fill:#ffcc00" d="m1718.4 797.64 20.827 42.2 46.571 6.7671-33.699 32.848 7.9552 46.382-41.654-21.899-41.654 21.899 7.9552-46.382-33.699-32.848 46.571-6.7671 20.827-42.2z" transform="matrix(.94499 -.54559 0 .94499 278.64 669.22)"/>
      </g>
    </g>
    <g id="g3515" transform="matrix(.18933 0 0 .18933 759.83 -361.22)">
      <g id="g3517" style="fill:#e6e6e6" transform="translate(-.49026 248.64)">
        <g id="g3519" style="fill:#e6e6e6">
          <path id="path3521" style="stroke-width:1px;fill:#e6e6e6" d="m1166.1 290.55 3.0686 1.7716v106.3l-3.0686-1.7717v-106.3z"/>
          <path id="path3523" style="stroke-width:1px;fill:#e6e6e6" d="m1184.5 301.18 3.0686 1.7716v106.3l-3.0686-1.7717v-106.3z"/>
          <path id="path3525" style="stroke-width:1px;fill:#e6e6e6" d="m1175.3 295.87 3.0686 1.7716v106.3l-3.0686-1.7717v-106.3z"/>
          <path id="path3527" style="stroke-width:1px;fill:#e6e6e6" d="m1193.7 306.5 3.0686 1.7716v106.3l-3.0686-1.7717v-106.3z"/>
          <path id="path3529" style="stroke-width:1px;fill:#e6e6e6" d="m1202.9 311.81 3.0686 1.7716v106.3l-3.0686-1.7717v-106.3z"/>
          <path id="path3531" style="stroke-width:1px;fill:#e6e6e6" d="m1212.1 317.13 3.0686 1.7716v106.3l-3.0686-1.7717v-106.3z"/>
          <path id="path3533" style="stroke-width:1px;fill:#e6e6e6" d="m1221.3 322.44 3.0686 1.7716v106.3l-3.0686-1.7717v-106.3z"/>
          <path id="path3535" style="stroke-width:1px;fill:#e6e6e6" d="m1230.5 327.76 3.0686 1.7716v106.3l-3.0686-1.7717v-106.3z"/>
          <path id="path3537" style="stroke-width:1px;fill:#e6e6e6" d="m1239.7 333.07 3.0686 1.7716v106.3l-3.0686-1.7717v-106.3z"/>
          <path id="path3539" style="stroke-width:1px;fill:#e6e6e6" d="m1248.9 338.39 3.0686 1.7716v106.3l-3.0686-1.7717v-106.3z"/>
          <path id="path3541" style="stroke-width:1px;fill:#e6e6e6" d="m1258.1 343.7 3.0686 1.7716v106.3l-3.0686-1.7717v-106.3z"/>
          <path id="path3543" style="stroke-width:1px;fill:#e6e6e6" d="m1267.3 349.02 3.0686 1.7716v106.3l-3.0686-1.7717v-106.3z"/>
          <path id="path3545" style="stroke-width:1px;fill:#e6e6e6" d="m1276.5 354.33 3.0686 1.7716v106.3l-3.0686-1.7717v-106.3z"/>
          <path id="path3547" style="stroke-width:1px;fill:#e6e6e6" d="m1285.7 359.65 3.0686 1.7716v106.3l-3.0686-1.7717v-106.3z"/>
        </g>
        <g id="g3549" style="fill:#e6e6e6">
          <path id="path3551" style="stroke-width:1px;fill:#e6e6e6" d="m1166.1 638.19 122.74 70.866v3.5433l-122.74-70.866v-3.5433z" transform="translate(0 -347.64)"/>
          <path id="path3553" style="stroke-width:1px;fill:#e6e6e6" d="m1166.1 301.18 122.74 70.866v3.5433l-122.74-70.866v-3.5433z"/>
          <path id="path3555" style="stroke-width:1px;fill:#e6e6e6" d="m1166.1 311.81 122.74 70.866v3.5433l-122.74-70.866v-3.5433z"/>
          <path id="path3557" style="stroke-width:1px;fill:#e6e6e6" d="m1166.1 322.44 122.74 70.866v3.5433l-122.74-70.866v-3.5433z"/>
          <path id="path3559" style="stroke-width:1px;fill:#e6e6e6" d="m1166.1 333.07 122.74 70.866v3.5433l-122.74-70.866v-3.5433z"/>
          <path id="path3561" style="stroke-width:1px;fill:#e6e6e6" d="m1166.1 343.7 122.74 70.866v3.5433l-122.74-70.866v-3.5433z"/>
          <path id="path3563" style="stroke-width:1px;fill:#e6e6e6" d="m1166.1 354.33 122.74 70.866v3.5433l-122.74-70.866v-3.5433z"/>
          <path id="path3565" style="stroke-width:1px;fill:#e6e6e6" d="m1166.1 364.96 122.74 70.866v3.5433l-122.74-70.866v-3.5433z"/>
          <path id="path3567" style="stroke-width:1px;fill:#e6e6e6" d="m1166.1 375.59 122.74 70.866v3.5433l-122.74-70.866v-3.5433z"/>
          <path id="path3569" style="stroke-width:1px;fill:#e6e6e6" d="m1166.1 386.22 122.74 70.866v3.5433l-122.74-70.866v-3.5433z"/>
        </g>
      </g>
      <path id="path3571" style="stroke-width:1px;fill:#cccccc" d="m1472.4 468.31-6.1563 4.75-2.3124 1.7812-0.75 0.5625-6.125 4.7188-3.0938 2.375v0.0312l-0.062 0.0312-4.2187 3.2188-1.8438 1.4375-3.0625 2.375-4.1563 3.1875-2 1.5312-3.0624 2.375-6.125 4.7188-3.0626 2.3438-6.1562 4.75-2.3125 1.7812-0.75 0.5625-6.125 4.7188-3.0625 2.3438-6.1562 4.75-2.9063 2.25-0.062 0.0312-0.094 0.0625-6.125 4.7188-3.0937 2.4062-6.125 4.7188-3.0625 2.3438-6.1562 4.75-2.3126 1.7812-0.75 0.5625-6.125 4.7188-3.0624 2.3438-6.1563 4.75-3.0625 2.375-6.125 4.6875-3.0938 2.4062-6.125 4.7188-3.0624 2.3438-6.1563 4.75-1.125 0.84375-1.875 1.4375-0.031 0.0312-0.031 0.0312-6.125 4.7188-3.0625 2.3438-6.1563 4.75-3.0624 2.375-6.125 4.6875-3.0938 2.4062-6.125 4.7188-3.0625 2.3438v3.5312 7.0938 3.5312 7.0938 3.5312 7.0938 3.5625 7.0625 3.5625 7.0938 3.5312 7.0938 3.5312 7.0938 3.5312 7.0938 3.5312 7.0938 3.5625 7.0625l3.0625-1.75v-7.0938l6.125-3.5312v7.0625l3.0938-1.75v-7.0938l6.125-3.5312v7.0625l3.0624-1.7812v-7.0625l6.1563-3.5312v7.0625l3.0625-1.7812v-7.0625l6.125-3.5312v7.0625l3.0625-1.7812v-7.0625l6.1563-3.5625v7.0938l3.0624-1.7812v-7.0625l6.125-3.5312v7.0625l3.0938-1.7812v-7.0625l6.125-3.5625v7.0938l3.0625-1.7812v-7.0625l6.1563-3.5625v7.0938l3.0624-1.7812v-7.0625l6.125-3.5625v7.0938l3.0626-1.7812v-7.0625l6.1562-3.5625v7.0938l3.0625-1.7812v-7.0938l6.125-3.5312v7.0625l3.0937-1.75v-7.0938l6.125-3.5312v7.0625l3.0626-1.75v-7.0938l6.1562-3.5312v7.0625l3.0625-1.75v-7.0938l6.125-3.5312v7.0625l3.0625-1.75v-7.0938l6.1562-3.5312v7.0625l3.0626-1.7812v-7.0625l6.125-3.5312v7.0625l3.0624-1.7812v-7.0625l6.1563-3.5625v7.0938l3.0625-1.7812v-7.0625l6.125-3.5312v7.0625l3.0938-1.7812v-7.0938l6.125-3.5312v7.0938l3.0624-1.7812v-7.0625l6.1563-3.5625v-3.5312l-6.1563 3.5625v-7.0938l6.1563-3.5625v-3.5625l-6.1563 3.5625v-7.0625l6.1563-3.5625v-3.5625l-6.1563 3.5625v-7.0625l6.1563-3.5625v-3.5625l-6.1563 3.5625v-7.0938l6.1563-3.5625v-3.5312l-6.1563 3.5625v-7.0938l6.1563-3.5625v-3.5312l-6.1563 3.5625v-7.0938l6.1563-3.5625v-3.5312l-6.1563 3.5625v-7.0938l6.1563-3.5625v-3.5312l-6.1563 3.5625v-7.0938l6.1563-3.5625v-3.5625l-6.1563 3.5625v-7.0625l6.1563-3.5625v-3.5625l-6.1563 3.5625v-7.0938l6.1563-3.5625v-3.5312l-6.1563 3.5625v-7.0938l6.1563-3.5625v-3.5312l-6.1563 3.5625v-7.0938l6.1563-3.5625v-3.5312-3.5625zm-9.2187 12.406v7.0938l-6.125 3.5312v-7.0625l6.125-3.5625zm-9.2188 5.3438v7.0625l-6.125 3.5625v-5.9062l6.125-4.7188zm9.2188 5.2812v7.0938l-6.125 3.5625v-7.125l6.125-3.5312zm-18.406 1.7812v5.3125l-6.1563 3.5625v-4.125l6.1563-4.75zm9.1875 3.5625v7.0938l-6.125 3.5312v-7.0938l6.125-3.5312zm-18.406 3.5312v3.5312l-6.125 3.5312v-2.3438l6.125-4.7188zm9.2187 1.75v7.0938l-6.1563 3.5625v-7.0938l6.1563-3.5625zm18.406 0v7.0938l-6.125 3.5625v-7.125l6.125-3.5312zm-36.813 5.3438v1.75l-6.1562 3.5625v-0.59375l6.1562-4.7188zm9.1876 0v7.0938l-6.125 3.5312v-7.0938l6.125-3.5312zm18.406 0v7.0938l-6.125 3.5312v-7.0938l6.125-3.5312zm-9.1875 5.2812v7.0938l-6.1563 3.5625v-7.0938l6.1563-3.5625zm-18.406 0.0312v7.0938l-6.1562 3.5312v-7.0938l6.1562-3.5312zm36.813 0v7.0625l-6.125 3.5625v-7.0938l6.125-3.5312zm-46.031 5.3125v7.0938l-6.125 3.5312v-7.0938l6.125-3.5312zm18.406 0v7.0938l-6.125 3.5312v-7.0938l6.125-3.5312zm18.406 0.0312v7.0625l-6.125 3.5312v-7.0625l6.125-3.5312zm-27.594 5.25v7.0938l-6.1562 3.5625v-7.0938l6.1562-3.5625zm-18.406 0.0312v7.0938l-6.1562 3.5312v-7.0938l6.1562-3.5312zm36.812 0v7.0625l-6.1563 3.5625v-7.0625l6.1563-3.5625zm18.406 0v7.0938l-6.125 3.5312v-7.0938l6.125-3.5312zm-64.438 5.3125v7.0938l-6.125 3.5312v-5.9062l6.125-4.7188zm18.406 0v7.0938l-6.125 3.5312v-7.0938l6.125-3.5312zm18.406 0.0312v7.0625l-6.125 3.5312v-7.0625l6.125-3.5312zm18.406 0v7.0938l-6.125 3.5312v-7.0938l6.125-3.5312zm-46 5.25v7.125l-6.1562 3.5312v-7.0938l6.1562-3.5625zm18.406 0.0312v7.0625l-6.1562 3.5625v-7.0625l6.1562-3.5625zm18.406 0v7.0938l-6.1563 3.5625v-7.0938l6.1563-3.5625zm18.406 0v7.0938l-6.125 3.5312v-7.0938l6.125-3.5312zm-73.656 1.7812v5.3125l-6.125 3.5625v-4.1562l6.125-4.7188zm9.2187 3.5312v7.0938l-6.125 3.5312v-7.0938l6.125-3.5312zm18.406 0.0312v7.0625l-6.125 3.5312v-7.0625l6.125-3.5312zm18.406 0v7.0938l-6.125 3.5312v-7.0938l6.125-3.5312zm18.406 0v7.0938l-6.125 3.5312v-7.0938l6.125-3.5312zm-73.625 3.5312v3.5312l-6.1562 3.5625v-2.375l6.1562-4.7188zm9.1875 1.75v7.0938l-6.125 3.5312v-7.0938l6.125-3.5312zm18.438 0v7.0938l-6.1562 3.5312v-7.0625l6.1562-3.5625zm18.406 0v7.0938l-6.1562 3.5625v-7.0938l6.1562-3.5625zm18.406 0v7.0938l-6.1563 3.5625v-7.0938l6.1563-3.5625zm18.406 0v7.0938l-6.125 3.5312v-7.0625l6.125-3.5625zm-82.844 5.3125v7.0938l-6.1562 3.5625v-7.0938l6.1562-3.5625zm-9.2188 0.0312v1.7812l-6.125 3.5312v-0.625l6.125-4.6875zm27.625 0v7.0625l-6.125 3.5312v-7.0625l6.125-3.5312zm18.406 0v7.0938l-6.125 3.5312v-7.0938l6.125-3.5312zm18.406 0v7.0938l-6.125 3.5312v-7.0938l6.125-3.5312zm18.406 0v7.0938l-6.125 3.5312v-7.0938l6.125-3.5312zm-82.844 5.2812v7.0938l-6.125 3.5312v-7.0938l6.125-3.5312zm36.844 0v7.0938l-6.1562 3.5625v-7.0938l6.1562-3.5625zm18.406 0v7.0938l-6.1562 3.5625v-7.0938l6.1562-3.5625zm18.406 0v7.0938l-6.1563 3.5625v-7.0938l6.1563-3.5625zm18.406 0v7.0938l-6.125 3.5312v-7.0625l6.125-3.5625zm-73.656 0.0312v7.0625l-6.125 3.5312v-7.0625l6.125-3.5312zm-27.594 5.2812v7.0938l-6.1563 3.5625v-7.0938l6.1563-3.5625zm18.406 0v7.0938l-6.1562 3.5625v-7.0938l6.1562-3.5625zm18.406 0.0312v7.0938l-6.125 3.5312v-7.0938l6.125-3.5312zm18.406 0v7.0938l-6.125 3.5312v-7.0938l6.125-3.5312zm18.406 0v7.0938l-6.125 3.5312v-7.0938l6.125-3.5312zm18.406 0v7.0938l-6.125 3.5312v-7.0938l6.125-3.5312zm-101.25 5.2812v7.0938l-6.125 3.5625v-7.125l6.125-3.5312zm55.25 0v7.0938l-6.1562 3.5625v-7.0938l6.1562-3.5625zm18.406 0v7.0938l-6.1562 3.5625v-7.0938l6.1562-3.5625zm18.406 0v7.0938l-6.1563 3.5625v-7.0938l6.1563-3.5625zm18.406 0v7.0938l-6.125 3.5312v-7.0625l6.125-3.5625zm-92.063 0.0312v7.0625l-6.125 3.5312v-7.0625l6.125-3.5312zm18.406 0v7.0938l-6.125 3.5312v-7.0938l6.125-3.5312zm-27.594 5.2812v7.0938l-6.1563 3.5625v-7.0938l6.1563-3.5625zm18.406 0v7.125l-6.1562 3.5312v-7.0938l6.1562-3.5625zm-36.844 0.0312v7.0938l-6.125 3.5312v-5.9062l6.125-4.7188zm55.25 0v7.0938l-6.125 3.5312v-7.0938l6.125-3.5312zm18.406 0v7.0938l-6.125 3.5312v-7.0938l6.125-3.5312zm18.406 0v7.0938l-6.125 3.5312v-7.0938l6.125-3.5312zm18.406 0v7.0938l-6.125 3.5312v-7.0938l6.125-3.5312zm-27.594 5.2812v7.125l-6.1562 3.5312v-7.0938l6.1562-3.5625zm18.406 0v7.0938l-6.1563 3.5625v-7.0938l6.1563-3.5625zm-92.062 0.0312v7.0625l-6.125 3.5625v-7.0938l6.125-3.5312zm18.406 0v7.0938l-6.125 3.5312v-7.0938l6.125-3.5312zm18.406 0v7.0938l-6.125 3.5312v-7.0938l6.125-3.5312zm18.438 0v7.0625l-6.1562 3.5625v-7.0938l6.1562-3.5312zm55.219 0v7.0625l-6.125 3.5312v-7.0625l6.125-3.5312zm-128.88 1.75v5.3438l-6.1563 3.5312v-4.125l6.1563-4.75zm27.625 3.5312v7.0938l-6.1563 3.5625v-7.0938l6.1563-3.5625zm18.406 0v7.125l-6.1562 3.5312v-7.0938l6.1562-3.5625zm-36.844 0.0312v7.0938l-6.125 3.5312v-7.0938l6.125-3.5312zm55.25 0v7.0938l-6.125 3.5312v-7.0938l6.125-3.5312zm18.406 0v7.0938l-6.125 3.5312v-7.0938l6.125-3.5312zm18.406 0v7.0938l-6.125 3.5312v-7.0938l6.125-3.5312zm18.406 0.0312v7.0625l-6.125 3.5312v-7.0625l6.125-3.5312zm-128.88 3.5v3.5625l-6.125 3.5312v-2.375l6.125-4.7188zm101.28 1.75v7.125l-6.1562 3.5312v-7.0938l6.1562-3.5625zm-92.062 0.0312v7.0938l-6.1563 3.5312v-7.0938l6.1563-3.5312zm18.406 0v7.0938l-6.125 3.5312v-7.0938l6.125-3.5312zm18.406 0v7.0938l-6.125 3.5312v-7.0938l6.125-3.5312zm18.406 0v7.0938l-6.125 3.5312v-7.0938l6.125-3.5312zm18.438 0v7.0938l-6.1562 3.5312v-7.0938l6.1562-3.5312zm36.812 0v7.0625l-6.1563 3.5625v-7.0625l6.1563-3.5625zm18.406 0v7.0625l-6.125 3.5312v-7.0625l6.125-3.5312zm-101.25 5.2812v7.0938l-6.1563 3.5625v-7.0938l6.1563-3.5625zm-46.031 0.0312v1.7812l-6.1563 3.5312v-0.59375l6.1563-4.7188zm9.1875 0v7.0938l-6.125 3.5312v-7.0938l6.125-3.5312zm18.406 0v7.0938l-6.125 3.5312v-7.0938l6.125-3.5312zm36.844 0v7.0938l-6.1562 3.5312v-7.0625l6.1562-3.5625zm18.406 0v7.0938l-6.125 3.5312v-7.0938l6.125-3.5312zm18.406 0v7.0938l-6.125 3.5312v-7.0938l6.125-3.5312zm18.406 0.0312v7.0625l-6.125 3.5312v-7.0625l6.125-3.5312zm18.406 0v7.0625l-6.125 3.5312v-7.0625l6.125-3.5312zm-138.06 5.2812v7.0938l-6.1563 3.5312v-7.0938l6.1563-3.5312zm18.406 0v7.0938l-6.1563 3.5312v-7.0938l6.1563-3.5312zm18.406 0v7.0938l-6.125 3.5312v-7.0938l6.125-3.5312zm18.406 0v7.0938l-6.125 3.5312v-7.0938l6.125-3.5312zm18.406 0v7.0938l-6.125 3.5312v-7.0938l6.125-3.5312zm18.438 0v7.0938l-6.1562 3.5312v-7.0938l6.1562-3.5312zm18.406 0v7.0938l-6.1562 3.5312v-7.0625l6.1562-3.5625zm18.406 0v7.0625l-6.1563 3.5625v-7.0625l6.1563-3.5625zm18.406 0v7.0938l-6.125 3.5312v-7.0938l6.125-3.5312zm-156.5 5.3125v7.0938l-6.125 3.5312v-7.0938l6.125-3.5312zm18.406 0v7.0938l-6.125 3.5312v-7.0938l6.125-3.5312zm18.406 0v7.0938l-6.125 3.5312v-7.0938l6.125-3.5312zm18.438 0v7.0625l-6.1563 3.5625v-7.0625l6.1563-3.5625zm18.406 0v7.0938l-6.1562 3.5625v-7.0938l6.1562-3.5625zm18.406 0v7.0938l-6.125 3.5312v-7.0938l6.125-3.5312zm18.406 0.0312v7.0625l-6.125 3.5312v-7.0625l6.125-3.5312zm18.406 0v7.0625l-6.125 3.5312v-7.0625l6.125-3.5312zm18.406 0v7.0938l-6.125 3.5312v-7.0938l6.125-3.5312zm-156.5 5.2812v7.0938l-6.125 3.5312v-7.0938l6.125-3.5312zm18.438 0v7.0938l-6.1563 3.5312v-7.0938l6.1563-3.5312zm18.406 0v7.0938l-6.1563 3.5312v-7.0938l6.1563-3.5312zm18.406 0v7.0938l-6.125 3.5312v-7.0625l6.125-3.5625zm18.406 0v7.0938l-6.125 3.5625v-7.125l6.125-3.5312zm18.406 0v7.0938l-6.125 3.5312v-7.0938l6.125-3.5312zm18.438 0v7.0938l-6.1562 3.5312v-7.0625l6.1562-3.5625zm18.406 0v7.0938l-6.1562 3.5312v-7.0625l6.1562-3.5625zm18.406 0v7.0938l-6.1563 3.5625v-7.0938l6.1563-3.5625zm-138.09 5.3125v7.0938l-6.125 3.5312v-7.0938l6.125-3.5312zm18.406 0v7.0938l-6.125 3.5312v-7.0938l6.125-3.5312zm36.844 0v7.0938l-6.1563 3.5625v-7.0938l6.1563-3.5625zm18.406 0v7.0938l-6.1562 3.5625v-7.0938l6.1562-3.5625zm-36.844 0.0312v7.0625l-6.125 3.5312v-7.0625l6.125-3.5312zm55.25 0v7.0625l-6.125 3.5312v-7.0625l6.125-3.5312zm18.406 0v7.0625l-6.125 3.5312v-7.0625l6.125-3.5312zm18.406 0v7.0938l-6.125 3.5312v-7.0938l6.125-3.5312zm-138.09 5.2812v7.0938l-6.125 3.5312v-7.0938l6.125-3.5312zm18.438 0v7.0938l-6.1563 3.5312v-7.0938l6.1563-3.5312zm36.812 0v7.0938l-6.125 3.5625v-7.0938l6.125-3.5625zm18.406 0v7.0938l-6.125 3.5625v-7.125l6.125-3.5312zm36.844 0v7.0938l-6.1562 3.5312v-7.0625l6.1562-3.5625zm18.406 0v7.0938l-6.1562 3.5625v-7.0938l6.1562-3.5625zm-92.062 0.0312v7.0625l-6.1563 3.5312v-7.0625l6.1563-3.5312zm55.219 0v7.0625l-6.125 3.5312v-7.0625l6.125-3.5312zm-82.844 5.2812v7.0938l-6.125 3.5312v-7.0938l6.125-3.5312zm55.25 0v7.0938l-6.1563 3.5625v-7.0938l6.1563-3.5625zm-36.844 0.0312v7.0625l-6.125 3.5312v-7.0625l6.125-3.5312zm18.406 0v7.0938l-6.125 3.5312v-7.0938l6.125-3.5312zm36.844 0v7.0625l-6.1562 3.5625v-7.0938l6.1562-3.5312zm18.406 0v7.0625l-6.125 3.5312v-7.0625l6.125-3.5312zm18.406 0v7.0938l-6.125 3.5312v-7.0938l6.125-3.5312zm-119.69 5.2812v7.0938l-6.125 3.5312v-7.0938l6.125-3.5312zm55.25 0v7.0938l-6.125 3.5625v-7.0938l6.125-3.5625zm55.25 0v7.0938l-6.1562 3.5625v-7.0938l6.1562-3.5625zm-92.062 0.0312v7.0625l-6.1563 3.5312v-7.0625l6.1563-3.5312zm18.406 0v7.0625l-6.1563 3.5625v-7.0938l6.1563-3.5312zm36.812 0v7.0625l-6.125 3.5625v-7.0938l6.125-3.5312zm18.406 0v7.0625l-6.125 3.5312v-7.0625l6.125-3.5312zm-27.594 5.2812v7.0938l-6.1563 3.5625v-7.0938l6.1563-3.5625zm-55.25 0.0312v7.0625l-6.125 3.5312v-7.0625l6.125-3.5312zm18.406 0v7.0938l-6.125 3.5312v-7.0938l6.125-3.5312zm18.406 0v7.0938l-6.125 3.5312v-7.0938l6.125-3.5312zm36.844 0v7.0625l-6.1562 3.5625v-7.0938l6.1562-3.5312zm18.406 0v7.0938l-6.125 3.5312v-7.0938l6.125-3.5312zm-101.28 5.3125v7.0625l-6.125 3.5312v-7.0625l6.125-3.5312zm18.438 0v7.0938l-6.1563 3.5312v-7.0938l6.1563-3.5312zm18.406 0v7.0625l-6.1563 3.5625v-7.0938l6.1563-3.5312zm18.406 0v7.0625l-6.125 3.5625v-7.0938l6.125-3.5312zm18.406 0v7.0625l-6.125 3.5625v-7.0938l6.125-3.5312zm18.406 0v7.0938l-6.125 3.5312v-7.0938l6.125-3.5312zm-27.594 5.2812v7.0938l-6.1563 3.5625v-7.0938l6.1563-3.5625zm-55.25 0.0312v7.0938l-6.125 3.5312v-7.0938l6.125-3.5312zm18.406 0v7.0938l-6.125 3.5312v-7.0938l6.125-3.5312zm18.406 0v7.0938l-6.125 3.5312v-7.0938l6.125-3.5312zm36.844 0v7.0625l-6.1562 3.5625v-7.0938l6.1562-3.5312zm-82.875 5.3125v7.0938l-6.125 3.5312v-7.0938l6.125-3.5312zm18.438 0v7.0938l-6.1563 3.5312v-7.0938l6.1563-3.5312zm18.406 0v7.0625l-6.1563 3.5625v-7.0938l6.1563-3.5312zm18.406 0v7.0625l-6.125 3.5625v-7.0938l6.125-3.5312zm18.406 0v7.0938l-6.125 3.5312v-7.0938l6.125-3.5312zm-9.1874 5.2812v7.0938l-6.1563 3.5625v-7.0938l6.1563-3.5625zm-55.25 0.0312v7.0938l-6.125 3.5312v-7.0938l6.125-3.5312zm18.406 0v7.0938l-6.125 3.5312v-7.0938l6.125-3.5312zm18.406 0v7.0938l-6.125 3.5312v-7.0938l6.125-3.5312zm-46.031 5.3125v7.0938l-6.125 3.5312v-7.0938l6.125-3.5312zm18.438 0v7.0938l-6.1563 3.5312v-7.0938l6.1563-3.5312zm18.406 0v7.0625l-6.1563 3.5625v-7.0938l6.1563-3.5312zm18.406 0v7.0938l-6.125 3.5312v-7.0938l6.125-3.5312zm-46.031 5.3125v7.0938l-6.125 3.5312v-7.0938l6.125-3.5312zm18.406 0v7.0938l-6.125 3.5312v-7.0938l6.125-3.5312zm18.406 0v7.0938l-6.125 3.5312v-7.0938l6.125-3.5312zm-46.031 5.3125v7.0938l-6.125 3.5312v-7.0938l6.125-3.5312zm18.438 0v7.0938l-6.1563 3.5312v-7.0938l6.1563-3.5312zm18.406 0v7.0938l-6.1563 3.5312v-7.0938l6.1563-3.5312zm-27.625 5.3125v7.0938l-6.125 3.5312v-7.0938l6.125-3.5312zm18.406 0v7.0938l-6.125 3.5312v-7.0938l6.125-3.5312zm-27.625 5.3125v7.0938l-6.125 3.5312v-7.0938l6.125-3.5312zm18.438 0v7.0938l-6.1563 3.5312v-7.0938l6.1563-3.5312zm-9.2187 5.3125v7.0938l-6.125 3.5312v-7.0938l6.125-3.5312zm-9.2188 5.3125v7.0938l-6.125 3.5312v-7.0938l6.125-3.5312z"/>
    </g>
  </g>
  <metadata>
    <rdf:RDF>
      <cc:Work>
        <dc:format>image/svg+xml</dc:format>
        <dc:type rdf:resource="http://purl.org/dc/dcmitype/StillImage"/>
        <cc:license rdf:resource="http://creativecommons.org/licenses/publicdomain/"/>
        <dc:publisher>
          <cc:Agent rdf:about="http://openclipart.org/">
            <dc:title>Openclipart</dc:title>
          </cc:Agent>
        </dc:publisher>
        <dc:title>CM Isometric Shopping Cart</dc:title>
        <dc:date>2010-07-27T05:08:33</dc:date>
        <dc:description>Part of the Coffeemachine's Isometric Set</dc:description>
        <dc:source>https://openclipart.org/detail/74815/cm-isometric-shopping-cart-by-depizol</dc:source>
        <dc:creator>
          <cc:Agent>
            <dc:title>depizol</dc:title>
          </cc:Agent>
        </dc:creator>
        <dc:subject>
          <rdf:Bag>
            <rdf:li>icon</rdf:li>
            <rdf:li>isometric</rdf:li>
            <rdf:li>isometric projection</rdf:li>
          </rdf:Bag>
        </dc:subject>
      </cc:Work>
      <cc:License rdf:about="http://creativecommons.org/licenses/publicdomain/">
        <cc:permits rdf:resource="http://creativecommons.org/ns#Reproduction"/>
        <cc:permits rdf:resource="http://creativecommons.org/ns#Distribution"/>
        <cc:permits rdf:resource="http://creativecommons.org/ns#DerivativeWorks"/>
      </cc:License>
    </rdf:RDF>
  </metadata>
</svg>
